<?xml version="1.0" encoding="UTF-8" standalone="no"?>
<svg
   xmlns:dc="http://purl.org/dc/elements/1.1/"
   xmlns:cc="http://creativecommons.org/ns#"
   xmlns:rdf="http://www.w3.org/1999/02/22-rdf-syntax-ns#"
   xmlns:svg="http://www.w3.org/2000/svg"
   xmlns="http://www.w3.org/2000/svg"
   xmlns:sodipodi="http://sodipodi.sourceforge.net/DTD/sodipodi-0.dtd"
   xmlns:inkscape="http://www.inkscape.org/namespaces/inkscape"
   width="588"
   height="187"
   id="svg2"
   version="1.1"
   inkscape:version="0.91 r13725"
   sodipodi:docname="kodi_logo.svg">
  <metadata
     id="metadata26">
    <rdf:RDF>
      <cc:Work
         rdf:about="">
        <dc:format>image/svg+xml</dc:format>
        <dc:type
           rdf:resource="http://purl.org/dc/dcmitype/StillImage" />
      </cc:Work>
    </rdf:RDF>
  </metadata>
  <defs
     id="defs24" />
  <sodipodi:namedview
     pagecolor="#ffffff"
     bordercolor="#666666"
     borderopacity="1"
     objecttolerance="10"
     gridtolerance="10"
     guidetolerance="10"
     inkscape:pageopacity="0"
     inkscape:pageshadow="2"
     inkscape:window-width="1555"
     inkscape:window-height="868"
     id="namedview22"
     showgrid="false"
     inkscape:zoom="0.97959184"
     inkscape:cx="368.85689"
     inkscape:cy="7.8579981"
     inkscape:window-x="129"
     inkscape:window-y="163"
     inkscape:window-maximized="0"
     inkscape:current-layer="g4" />
  <g
     id="g4">
    <title
       id="title6">Layer 1</title>
    <g
       id="svg_33">
      <g
         id="svg_34"
         style="fill:#ffffff">
        <path
           id="svg_35"
           d="m376.615997,40.531998c0.954987,0.061005 1.911987,0.119003 2.867004,0.186005c7.334015,0.505997 14.343964,2.225998 20.894989,5.628998c4.677979,2.432999 8.825989,5.580002 12.528992,9.334c4.018005,4.076004 7.34198,8.645004 9.846008,13.800003c1.835999,3.783997 3.111023,7.753998 3.994019,11.860016c1.08197,5.033997 1.437988,10.130981 1.224976,15.257996c-0.346008,8.225983 -2.166016,16.091003 -6.044983,23.41098c-2.707031,5.106018 -6.234009,9.588013 -10.432007,13.550018c-6.729004,6.35498 -14.61499,10.498993 -23.676025,12.419983c-3.353973,0.709015 -6.735992,1.154022 -10.161987,1.261993c-0.156006,0.006012 -0.30899,0.050018 -0.464996,0.076019h-4.031006c-0.876984,-0.063019 -1.753998,-0.123016 -2.626984,-0.187012c-10.494019,-0.759979 -20.072021,-4.002991 -28.371002,-10.605988c-6.550995,-5.210999 -11.679993,-11.571014 -15.179993,-19.203003c-1.779022,-3.878998 -2.969025,-7.946014 -3.762024,-12.134003c-0.89798,-4.737 -1.181976,-9.519989 -0.942993,-14.324005c0.506012,-10.117981 3.170013,-19.562988 9.041016,-27.934998c6.868988,-9.792999 15.85199,-16.757996 27.446991,-20.125c3.535004,-1.026001 7.136993,-1.709991 10.80899,-1.991989c1.164001,-0.091003 2.332001,-0.136002 3.496002,-0.207001c0.19101,-0.011002 0.378998,-0.047012 0.567993,-0.073013h2.97702l0,0zm-1.593994,93.058014c3.72998,-0.031006 7.339996,-0.335999 10.880981,-1.210999c7.711029,-1.904022 14.125031,-5.904999 19.220978,-12.005005c5.205017,-6.225006 7.912048,-13.459015 8.646057,-21.479004c0.251953,-2.744995 0.280945,-5.494995 0.116943,-8.247986c-0.177979,-2.987 -0.569946,-5.945007 -1.362976,-8.835022c-2.47699,-9.024994 -7.544983,-16.225983 -15.33197,-21.436005c-5.82605,-3.89299 -12.342041,-5.675995 -19.29303,-6.020981c-3.799011,-0.186005 -7.575989,-0.014999 -11.320007,0.664993c-6.544983,1.188995 -12.368988,3.891006 -17.386993,8.286987c-4.86499,4.265015 -8.382996,9.443024 -10.55899,15.534027c-1.649994,4.607971 -2.309021,9.378998 -2.377014,14.250977c-0.057007,3.785004 0.209015,7.544006 1.03302,11.240997c1.491974,6.673004 4.491974,12.564026 9.175995,17.585022c4.134979,4.428986 9.052979,7.615997 14.781006,9.566986c4.498993,1.533997 9.144989,2.054993 13.776001,2.105011"
           clip-rule="evenodd"
           fill-rule="evenodd"
           style="fill:#ffffff" />
        <path
           id="svg_36"
           d="m566.373962,144.918991c-0.394958,0.953003 -0.69696,1.147003 -1.774963,1.147003c-3.52002,0 -7.041016,0.002014 -10.564026,0c-1.23999,0 -1.69696,-0.459991 -1.69696,-1.707977v-100.830017c0,-1.292999 0.454956,-1.744995 1.768005,-1.746002c3.520996,0 7.042969,-0.011993 10.560974,0.019012c0.435974,0.002991 0.909973,0.174988 1.281006,0.404999c0.224976,0.139999 0.291016,0.537003 0.427979,0.820999v101.891983l-0.002014,0z"
           clip-rule="evenodd"
           fill-rule="evenodd"
           style="fill:#ffffff" />
        <path
           id="svg_37"
           d="m279.190979,84.082993c1.776001,2.358002 3.536011,4.696014 5.294006,7.033997c3.729004,4.957001 7.459991,9.914001 11.190979,14.873016c4.798004,6.377991 9.593018,12.751984 14.392029,19.126984c4.700989,6.248016 9.399994,12.498016 14.106995,18.73999c0.350006,0.460022 0.5,0.929016 0.25,1.462006c-0.253998,0.539001 -0.746002,0.713013 -1.300995,0.744995c-0.254028,0.015015 -0.51001,0.002014 -0.768005,0.002014c-4.338013,0 -8.674011,-0.002991 -13.011993,0.006012c-0.742004,0.000977 -1.285004,-0.248016 -1.75,-0.865997c-8.180023,-10.933014 -16.378021,-21.854004 -24.574005,-32.779022c-4.654022,-6.200989 -9.311005,-12.401978 -13.968018,-18.604004c-0.036987,-0.052002 -0.082001,-0.096985 -0.14798,-0.174988c-0.565002,0.526001 -1.126007,1.049011 -1.684998,1.569c-3.775024,3.527985 -7.548004,7.059998 -11.322021,10.591003c-2.080994,1.942993 -4.161987,3.888 -6.253998,5.819c-0.269989,0.247986 -0.380981,0.494995 -0.380981,0.863007c0.009979,10.561981 0.007996,21.126984 0.007996,31.687988c0,0.127014 0.003998,0.256012 0,0.38501c-0.026993,0.96698 -0.52002,1.493988 -1.487,1.497986c-3.697983,0.014008 -7.394012,0.011017 -11.091003,0.001007c-0.938019,-0.003998 -1.432007,-0.532013 -1.451019,-1.472992c-0.001984,-0.110016 0,-0.223999 0,-0.335999v-100.632996v-0.095993c0,-1.274002 0.460022,-1.738998 1.723999,-1.738998c3.377014,-0.001007 6.753021,-0.001007 10.131012,-0.001007c0.222992,0 0.447998,-0.007004 0.671997,0.001007c0.977997,0.044998 1.458008,0.526993 1.501007,1.5c0.006989,0.144989 0.001007,0.289001 0.001007,0.431992v48.783005v0.675995c0.837982,-0.781982 1.595001,-1.484009 2.346985,-2.190002c4.458008,-4.182007 8.912018,-8.367004 13.372009,-12.546997c5.847992,-5.480011 11.699982,-10.958008 17.549011,-16.440002c4.901978,-4.597 9.800995,-9.196991 14.699982,-13.794998c2.06601,-1.938995 4.138,-3.869995 6.196991,-5.813995c0.430023,-0.406006 0.920013,-0.604996 1.509003,-0.604996c5.169006,0.000992 10.33902,0 15.509003,0.000992c0.881012,0 1.377014,0.320007 1.563019,0.979004c0.153992,0.544006 -0.055023,0.966995 -0.436005,1.330994c-1.498016,1.423004 -2.992004,2.845001 -4.492004,4.261002c-2.653992,2.501999 -5.31601,5.001007 -7.968994,7.503006c-3.682007,3.468002 -7.359009,6.932999 -11.035004,10.404984c-3.770996,3.557007 -7.535004,7.120026 -11.304993,10.675018c-2.513,2.371979 -5.032013,4.735992 -7.588013,7.142975"
           clip-rule="evenodd"
           fill-rule="evenodd"
           style="fill:#ffffff" />
        <path
           id="svg_38"
           d="m444.011963,93.936996v-50.222992c0,-0.145996 0,-0.289001 0.002014,-0.434006c0.02002,-0.947998 0.497986,-1.442001 1.437988,-1.495987c0.064026,-0.004013 0.129028,-0.001007 0.19104,-0.001007c14.359009,0.001007 28.714966,-0.033997 43.07196,0.020996c6.604004,0.02301 12.921997,1.508011 18.949036,4.203003c5.243958,2.345001 9.85199,5.615005 13.85199,9.729004c6.520996,6.695984 10.85199,14.596008 12.97998,23.708008c1.22699,5.246979 1.731995,10.55899 1.621033,15.93399c-0.150024,7.220001 -1.403992,14.230011 -4.140991,20.937988c-2.285034,5.601013 -5.557007,10.574005 -9.680054,14.988007c-6.327942,6.778015 -14.015991,11.233002 -23.022949,13.416016c-3.887024,0.940979 -7.824036,1.359985 -11.824036,1.355988c-13.907959,-0.020996 -27.815979,-0.007996 -41.72699,-0.01001c-0.237976,0 -0.479004,-0.016998 -0.713013,-0.052002c-0.513977,-0.082977 -0.83197,-0.390991 -0.924011,-0.901978c-0.04895,-0.266022 -0.069946,-0.539001 -0.069946,-0.807007c-0.003052,-16.790009 -0.003052,-33.578003 -0.003052,-50.368011m14.046997,38.707001h0.619019c9.348022,0 18.692993,0.007996 28.041016,-0.010986c1.676025,-0.003021 3.359009,-0.072021 5.028992,-0.203003c3.473022,-0.27301 6.78302,-1.194 9.948975,-2.643005c4.139038,-1.895996 7.615051,-4.656006 10.609009,-8.06601c2.791016,-3.177979 4.996033,-6.713989 6.621033,-10.612c1.72998,-4.151001 2.659973,-8.481995 3.003967,-12.959991c0.31604,-4.087006 0.189026,-8.152985 -0.425964,-12.200012c-0.729004,-4.780975 -2.285034,-9.293976 -4.689026,-13.495972c-2.671997,-4.673004 -6.120972,-8.674011 -10.549011,-11.765015c-5.300964,-3.701996 -11.253967,-5.423004 -17.679993,-5.453995c-10.003967,-0.048004 -20.007996,-0.014999 -30.01001,-0.016998h-0.519958v77.426987l0.001953,0z"
           clip-rule="evenodd"
           fill-rule="evenodd"
           style="fill:#ffffff" />
      </g>
      <g
         id="svg_39">
        <path
           id="svg_40"
           d="m187.145996,95.328995c-0.60202,1.953003 -1.921021,3.382996 -3.333008,4.790009c-9.464996,9.433014 -18.899979,18.897003 -28.345001,28.348999c-3.402985,3.404999 -7.040009,3.395996 -10.456985,-0.023987c-9.748001,-9.755005 -19.497002,-19.51001 -29.239998,-29.266998c-3.320007,-3.322998 -3.318008,-6.953003 0.009995,-10.28302c9.798996,-9.815002 19.60099,-19.625 29.403999,-29.432999c3.188995,-3.192001 6.936981,-3.194 10.125977,-0.003998c9.503036,9.50499 18.992004,19.022995 28.513,28.512009c1.41304,1.406982 2.728027,2.84198 3.323029,4.796997v2.562988l-0.001007,0z"
           clip-rule="evenodd"
           fill-rule="evenodd"
           fill="#31AFE1" />
        <path
           id="svg_41"
           d="m93.189995,186.720016c-1.944,-0.617004 -3.352005,-1.962006 -4.752991,-3.372009c-9.425003,-9.473999 -18.878006,-18.916016 -28.322006,-28.371002c-3.378998,-3.384003 -3.382004,-6.993011 -0.011002,-10.368988c9.772995,-9.781006 19.546997,-19.563019 29.324005,-29.343018c3.25,-3.251007 6.973999,-3.264008 10.205994,-0.028992c9.775009,9.778992 19.548996,19.562988 29.320992,29.346985c3.356995,3.362 3.366013,7.045013 0.024017,10.389008c-9.526009,9.537994 -19.066002,19.062012 -28.57,28.617004c-1.360001,1.365997 -2.759003,2.596008 -4.655014,3.131989h-2.563995l0,-0.000977z"
           clip-rule="evenodd"
           fill-rule="evenodd"
           fill="#31AFE1" />
        <path
           id="svg_42"
           d="m58.887993,70.608994c0,-10.876999 0.098007,-21.753998 -0.063004,-32.628006c-0.044998,-3.146988 0.706009,-5.604996 3.110001,-7.681992c1.932007,-1.671005 3.647003,-3.598999 5.458008,-5.414001c7.166,-7.173004 14.328995,-14.343994 21.496994,-21.514999c3.37001,-3.369995 7.006012,-3.367004 10.374008,0.001999c9.748993,9.751007 19.494995,19.505005 29.242989,29.259003c3.348999,3.352997 3.346024,7.037003 -0.001999,10.388992c-11.527,11.542999 -23.058998,23.082016 -34.588997,34.621017c-10.182007,10.194 -20.362,20.385986 -30.545013,30.575989c-1.886993,1.889008 -3.55899,1.447998 -4.243988,-1.169006c-0.210999,-0.809998 -0.229004,-1.684998 -0.229004,-2.531982c-0.013992,-11.300995 -0.009995,-22.605011 -0.009995,-33.907013"
           clip-rule="evenodd"
           fill-rule="evenodd"
           fill="#31AFE1" />
        <path
           id="svg_43"
           d="m35.575996,94.175003c0,9.980011 0.014008,19.963989 -0.020996,29.944c-0.003998,0.946991 -0.154007,1.950989 -0.494003,2.832001c-0.666,1.731995 -1.916,1.946991 -3.223999,0.640991c-4.591003,-4.582001 -9.169006,-9.178986 -13.75,-13.768005c-5.296005,-5.303986 -10.593994,-10.608978 -15.887009,-15.916992c-2.190994,-2.196991 -2.199989,-5.244995 -0.01799,-7.453003c9.748001,-9.858978 19.498001,-19.71698 29.251999,-29.574005c0.645004,-0.65097 1.251999,-1.534988 2.348999,-1.120987c1.046997,0.396011 1.460999,1.340988 1.608994,2.388016c0.094009,0.648987 0.167007,1.309998 0.167999,1.964996c0.01001,10.020996 0.006012,20.040985 0.006012,30.062988h0.009995l0,0z"
           clip-rule="evenodd"
           fill-rule="evenodd"
           fill="#31AFE1" />
      </g>
    </g>
    <g
       id="svg_44"
       style="fill:#ffffff">
      <path
         id="svg_45"
         d="m579.872986,43.442001h-2.541016v6.490005h-0.824951v-6.490005h-2.540039v-0.791992h5.906006v0.791992l0,0z"
         style="fill:#ffffff" />
      <path
         id="svg_46"
         d="m588.002991,42.650009v7.281998h-0.825012v-6.028l-2.695007,3.464996l-2.737976,-3.464996v6.028h-0.825012v-7.281998h0.957031l2.605957,3.453995l2.562988,-3.453995h0.957031l0,0z"
         style="fill:#ffffff" />
    </g>
  </g>
</svg>
